<svg width="119" height="18" viewBox="0 0 119 18" fill="none" xmlns="http://www.w3.org/2000/svg">
<path d="M22.1628 6.59998V4.89594H18.5867V17.808H22.3309V11.7119C22.3309 10.5119 22.6346 9.612 23.2428 9.01199C23.8506 8.41199 24.6906 8.11206 25.7628 8.11206C25.9068 8.11206 26.1866 8.12811 26.6028 8.1599V4.70399C25.6104 4.70399 24.7345 4.86415 23.9748 5.18402C23.2146 5.50419 22.6106 5.97598 22.1628 6.59998Z" fill="white"/>
<path d="M30.9707 10.2239C31.0987 9.39223 31.4508 8.73599 32.0268 8.25596C32.6028 7.77593 33.3145 7.53598 34.1627 7.53598C34.9946 7.53598 35.6986 7.78012 36.2748 8.26796C36.8507 8.75624 37.2025 9.40798 37.3307 10.2239H30.9707ZM37.5706 5.52002C36.5467 4.97625 35.4025 4.70392 34.1387 4.70392C32.8427 4.70392 31.6706 4.98825 30.6228 5.55601C29.5746 6.12407 28.7508 6.91603 28.1508 7.93204C27.5508 8.94819 27.2507 10.0882 27.2507 11.352C27.2507 12.6322 27.5546 13.776 28.1628 14.7839C28.7706 15.7919 29.6346 16.5801 30.7548 17.1479C31.8744 17.716 33.1626 18 34.6187 18C36.9546 18 38.7306 17.3039 39.9467 15.9119L37.9547 13.752C37.5066 14.1839 37.0224 14.5001 36.5027 14.6999C35.9825 14.9001 35.3867 15 34.7147 15C33.7386 15 32.9227 14.7681 32.2669 14.304C31.6105 13.84 31.1946 13.2082 31.0187 12.4079H40.7868C40.8347 11.7839 40.8587 11.4479 40.8587 11.3999C40.8587 10.056 40.5666 8.87621 39.9826 7.8599C39.3984 6.84405 38.5944 6.06409 37.5706 5.52002Z" fill="white"/>
<path d="M51.8986 13.9109C51.2746 14.509 50.4904 14.8079 49.5465 14.8079C48.5866 14.8079 47.7945 14.509 47.1707 13.9109C46.5465 13.313 46.2344 12.5122 46.2344 11.5081C46.2344 10.5041 46.5465 9.70295 47.1707 9.1049C47.7945 8.50699 48.5866 8.20796 49.5465 8.20796C50.4904 8.20796 51.2746 8.50699 51.8986 9.1049C52.5226 9.70295 52.8345 10.5041 52.8345 11.5081C52.8345 12.5122 52.5226 13.313 51.8986 13.9109ZM52.7625 6.26398C51.8344 5.22413 50.5462 4.70391 48.8986 4.70391C47.6825 4.70391 46.5825 4.97625 45.5986 5.52001C44.6145 6.06408 43.8425 6.83999 43.2826 7.8479C42.7224 8.85596 42.4426 10.0242 42.4426 11.352C42.4426 12.6802 42.7224 13.8479 43.2826 14.8559C43.8425 15.8639 44.6145 16.6401 45.5986 17.1839C46.5825 17.7281 47.6825 18 48.8986 18C50.6584 18 52.0023 17.44 52.9305 16.32V17.8079H56.5065V0H52.7625V6.26398Z" fill="white"/>
<path d="M60.6076 17.8201H62.4908V10.2619H71.7033V8.63316H62.4908V1.63481H72.8229V0.00605063H60.6076V17.8201Z" fill="white"/>
<path d="M76.335 10.3382C76.4534 9.01495 76.9498 7.94211 77.8237 7.11896C78.6974 6.29626 79.7789 5.88476 81.0683 5.88476C82.3746 5.88476 83.4645 6.29626 84.3385 7.11896C85.2122 7.94211 85.7083 9.01495 85.8272 10.3382H76.335ZM84.4021 5.19762C83.4181 4.62101 82.3067 4.33233 81.0683 4.33233C79.8297 4.33233 78.7144 4.62101 77.722 5.19762C76.7294 5.77454 75.9488 6.58059 75.3806 7.61519C74.8119 8.65039 74.5282 9.82086 74.5282 11.1272C74.5282 12.4338 74.8248 13.6044 75.4188 14.639C76.0125 15.6741 76.8396 16.484 77.9001 17.0694C78.9601 17.6547 80.1778 17.9474 81.5519 17.9474C82.6208 17.9474 83.6006 17.7608 84.4912 17.3874C85.382 17.0146 86.1239 16.4713 86.718 15.7588L85.7001 14.5882C85.1911 15.1651 84.5887 15.6021 83.8931 15.8987C83.1973 16.1958 82.4338 16.3441 81.6027 16.3441C80.1268 16.3441 78.9053 15.9158 77.9382 15.0589C76.9711 14.2025 76.4368 13.0784 76.335 11.687H87.5323L87.5578 11.1272C87.5578 9.80391 87.2778 8.62924 86.718 7.60259C86.158 6.57624 85.3859 5.77454 84.4021 5.19762Z" fill="white"/>
<path d="M91.7056 10.3382C91.8241 9.01495 92.3204 7.94211 93.1943 7.11896C94.068 6.29626 95.1495 5.88476 96.439 5.88476C97.7452 5.88476 98.8352 6.29626 99.7092 7.11896C100.583 7.94211 101.079 9.01495 101.198 10.3382H91.7056ZM99.7727 5.19762C98.7887 4.62101 97.6773 4.33233 96.439 4.33233C95.2003 4.33233 94.0851 4.62101 93.0926 5.19762C92.1 5.77454 91.3194 6.58059 90.7512 7.61519C90.1827 8.65039 89.8988 9.82086 89.8988 11.1272C89.8988 12.4338 90.1954 13.6044 90.7895 14.639C91.3832 15.6741 92.2102 16.484 93.2708 17.0694C94.3307 17.6547 95.5484 17.9474 96.9225 17.9474C97.9915 17.9474 98.9712 17.7608 99.8618 17.3874C100.753 17.0146 101.494 16.4713 102.089 15.7588L101.071 14.5882C100.562 15.1651 99.9593 15.6021 99.2638 15.8987C98.5679 16.1958 97.8045 16.3441 96.9734 16.3441C95.4974 16.3441 94.276 15.9158 93.3089 15.0589C92.3419 14.2025 91.8074 13.0784 91.7056 11.687H102.903L102.928 11.1272C102.928 9.80391 102.648 8.62924 102.089 7.60259C101.529 6.57624 100.756 5.77454 99.7727 5.19762Z" fill="white"/>
<path d="M116.403 13.8501C115.971 14.6478 115.377 15.2625 114.622 15.6952C113.867 16.1278 113.023 16.344 112.09 16.344C111.139 16.344 110.287 16.1278 109.532 15.6952C108.777 15.2625 108.183 14.6478 107.751 13.8501C107.318 13.0529 107.102 12.1451 107.102 11.1271C107.102 10.1093 107.318 9.20172 107.751 8.40422C108.183 7.60686 108.777 6.99186 109.532 6.55906C110.287 6.12657 111.139 5.91017 112.09 5.91017C113.023 5.91017 113.867 6.12657 114.622 6.55906C115.377 6.99186 115.971 7.60686 116.403 8.40422C116.836 9.20172 117.052 10.1093 117.052 11.1271C117.052 12.1451 116.836 13.0529 116.403 13.8501ZM117.027 9.95411e-05V6.97911C116.467 6.11382 115.75 5.45653 114.876 5.00679C114.002 4.5575 113.023 4.3324 111.937 4.3324C110.681 4.3324 109.545 4.61673 108.527 5.18495C107.509 5.75346 106.711 6.55516 106.135 7.58976C105.558 8.62481 105.269 9.80383 105.269 11.1271C105.269 12.4505 105.558 13.6299 106.135 14.6645C106.711 15.6997 107.509 16.5056 108.527 17.0822C109.545 17.6591 110.681 17.9473 111.937 17.9473C113.057 17.9473 114.062 17.7099 114.953 17.2348C115.843 16.76 116.56 16.0729 117.103 15.1734V17.8201H118.834V9.95411e-05H117.027Z" fill="white"/>
<path d="M0 3.12887e-05V7.26022L6.92157 3.12887e-05H0Z" fill="white"/>
<path d="M0 17.8079V12.5592L12.0158 4.85073e-05H17.05L9.34289 8.11908L17.0749 17.8079H12.0391L6.5954 10.9867L0 17.8079Z" fill="white"/>
</svg>
